<?xml version="1.0" encoding="utf-8"?>
<!-- Designed by Vexels.com - 2016 All Rights Reserved - https://vexels.com/terms-and-conditions/  -->

<svg version="1.1" id="Capa_1" xmlns="http://www.w3.org/2000/svg" xmlns:xlink="http://www.w3.org/1999/xlink" x="0px" y="0px"
	 width="1200px" height="1200px" viewBox="0 0 1200 1200" enable-background="new 0 0 1200 1200" xml:space="preserve">
<g>
	<g>
		<path fill="#451307" d="M955.324,1114.412c-13.158-11.627-14.696-11.627-29.363-27.833c-14.71-16.266-17.029-7.747-20.126-18.563
			c-3.091-10.83-7.727-6.209-18.56-22.415c-10.807-16.248-9.287-20.902-11.595-30.173c-2.319-9.249-10.057-34.784-17.002-60.298
			c-6.957-25.509-11.573-53.325-22.429-78.818c-10.801-25.526-45.599-76.53-54.11-98.214c-8.472-21.626-20.085-24.712-18.56-34.763
			c1.579-10.066,1.579-7.731-10.024-25.497c-11.6-17.799-3.881-15.469-7.744-28.618c-3.855-13.155-6.976-20.882-6.177-40.185
			c0.762-19.339-4.662-13.938-26.272-62.641c-4.355-9.745-8.838-19.828-13.273-29.767l0.919,0.404l2.296-40.21
			c4.646-2.326,9.26-20.871,9.26-20.871c3.871-15.459,48.722-69.568,71.139-96.627c0.657-0.804,1.34-1.624,1.933-2.393
			c19.797-25.794,8.874-43.973,8.874-43.973s0,0,3.866-10.83c3.847-10.802,2.319-18.546-4.605-28.615
			c-6.976-10.013-3.121-10.013-4.668-19.299c-1.544-9.273-4.635-27.099-19.313-43.288c-14.681-16.268-57.226-35.578-57.226-35.578
			c1.579-4.664,3.134-23.951,3.134-23.951c5.407-10.065,3.051-45.619,3.051-45.619c-3.051-61.833-61.055-60.301-61.055-60.301
			c-83.505-6.978-68.803,87.357-68.803,87.357c-9.26-7.742-6.195,10.806-6.195,10.806c-3.874,3.091-28.589-4.664-42.544-7.712
			c-13.853-3.094-36.287-6.169-55.618-7.76c-19.331-1.513-18.571,6.225-27.834,10.809c-9.276,4.664-31.715,2.353-52.602,6.223
			c-20.823,3.86-33.203,3.106-57.158,1.532c-23.978-1.532-40.194,4.666-68.031,13.939c-27.838,9.276-44.835,19.286-69.605,34.005
			c-24.742,14.691-44.041,18.559-50.227,19.313c-6.193,0.81-15.469-4.622-27.835-6.169c-12.348-1.559-20.854,0-34.016,6.979
			c-13.119,6.934-19.319,12.32-19.319,12.32l-10.813,24.759c0,26.286,14.686,3.871,14.686,3.871c3.873,18.545,13.12,1.56,13.12,1.56
			c11.595,13.129,17.821,4.605,17.821,4.605c-1.581-6.167,11.557-13.908,11.557-13.908c12.394-8.511,19.327,3.869,19.327,3.869
			c-13.897,15.438,30.928,0.75,30.928,0.75c4.627-3.061,27.834-13.133,27.834-13.133c23.188-10.023,56.423-10.817,56.423-10.817
			c58.005-5.432,85.043-19.313,85.043-19.313c3.859,14.706,77.302,40.2,86.591,49.47c9.264,9.26,7.739,25.499,1.528,37.89
			c-6.19,12.366-10.033,13.885-27.851,26.274c-17.735,12.364-10.014,20.107-23.15,51.013
			c-13.135,30.941-29.397,22.411-29.397,22.411c3.107,16.233,24.746,17.015,24.746,17.015s3.105,0-1.559,20.122
			c-4.627,20.062-9.242,31.69-20.08,46.365c-10.825,14.678-20.869,41.745-30.927,64.177c-10.053,22.408-12.394,57.206-17.014,74.192
			c-4.629,17.028-15.462,25.511-23.185,36.313c-7.757,10.863-26.288,39.465-32.465,58.778c-6.17,19.326-26.311,57.949-28.607,74.98
			c-2.295,16.986-3.089,20.86-8.496,28.603c-5.43,7.743-13.923,21.651-23.182,32.497c-9.289,10.805-8.52,10.805-29.372,31.648
			c-20.895,20.875-20.895,13.913-30.949,33.272c-10.054,19.311-6.95,33.982,0,51.001c6.964,17.018,31.704,6.192,41.763,0
			c10.041-6.183,30.14-31.69,33.244-39.434c3.066-7.699,10.81-15.425,20.846-26.246c10.088-10.833,23.197-13.168,27.071-19.355
			c3.856-6.197,4.66-27.068,5.401-40.184c0.786-13.157,13.136-23.2,21.652-37.886c8.504-14.696,25.487-29.369,36.35-41.747
			c10.813-12.351,19.329-47.925,20.867-56.432c1.526-8.496,10.02-10.834,27.032-25.528c17.002-14.669,22.448-45.587,34.006-44.82
			c11.61,0.795,37.883-1.555,37.883-1.555s10.068-9.277,13.167-16.992c3.104-7.726,20.871-28.6,35.57-43.274
			c14.678-14.705,32.432-22.42,45.588-29.38c13.119-6.946,22.433,23.197,32.461,36.315c10.054,13.16,10.823,20.903,10.823,27.05
			c0,6.2-4.657,1.563,1.567,10.865c6.167,9.271,25.481,0,27.834,5.386c0,0,76.524,85.038,79.609,99.699
			c3.086,14.721,23.959,32.503,27.066,44.068c3.091,11.584,16.222,28.632,18.549,58.777c2.308,30.155,35.554,64.162,48.69,79.604
			c13.141,15.495,31.679,65.721,43.273,88.136c11.611,22.437,9.274,64.931,9.274,64.931c-3.07,33.219,36.373,27.042,36.373,27.042
			c10.037-0.753,18.522,8.533,18.522,8.533c15.452,20.079,54.899,18.515,77.292,14.678c1.354-0.226,2.569-0.543,3.653-0.866
			C982.762,1141.636,967.658,1125.286,955.324,1114.412z M666.996,425.617c2.279-11.601,6.914-10.831,16.209-23.222
			c9.273-12.355,21.634-28.578,30.938-32.447c9.275-3.867,10.01,6.198,2.298,16.252c-7.734,10.065-20.086,48.692-25.51,69.553
			c-5.401,20.897-20.128,30.158-20.128,30.158l-1.487,1.519c-2.914-6.592-4.904-11-5.442-12.351
			C661.548,469.674,664.652,437.231,666.996,425.617z"/>
		<path fill="#451307" d="M1040.334,50c-51.104,0-92.551,41.489-92.551,92.606c0,51.102,41.446,92.536,92.551,92.536
			c51.149,0,92.572-41.435,92.572-92.536C1132.906,91.489,1091.483,50,1040.334,50z"/>
	</g>
</g>
</svg>
